<svg width="16" height="17" viewBox="0 0 16 17" fill="none" xmlns="http://www.w3.org/2000/svg">
<g clip-path="url(#clip0_1_34)">
<path d="M8.57143 0H6.64286C6.38571 0.0883117 6.32143 0.513847 6.32143 0.715575V10.5974C6.15 11.6571 4.82143 11.5909 4.07143 11.5909C3 11.5909 2.67857 10.9654 2.67857 10.5974V8.61039C2.67857 8.27922 2.42857 7.94805 2.25 7.94805H0.428571C0.0857143 7.94805 0 8.38961 0 8.61039V11.2597C0 13.026 1.82143 13.7987 2.57143 13.9091C2.9441 13.9639 3.82143 14.0563 4.28571 14.0195L3 17L9 6.29221V0.662338C9 0.11039 8.78571 0 8.57143 0Z" fill="#006CFA"/>
<path d="M9.55682 7.74016L11.1932 3.66142L7 11.4192V16.3386C7 16.8898 7.23864 17 7.40909 17H9.04545C9.45455 17 9.55682 16.7428 9.55682 16.5591V11.7087C9.55682 11.2677 9.86364 11.2677 10.0682 11.2677H12.9318C13.3409 11.2677 13.4432 11.5249 13.4432 11.7087V16.5591C13.4432 16.8898 13.75 17 13.9545 17H15.5909C15.8977 17 16 16.7428 16 16.5591V3.55118C16 3.11024 15.7955 3 15.5909 3H13.9545C13.5455 3 13.4432 3.33071 13.4432 3.55118V8.1811C13.4432 8.62205 13.1364 8.84252 12.9318 8.84252H10.0682C9.65909 8.84252 9.55682 8.62205 9.55682 8.40157V7.74016Z" fill="#006CFA"/>
</g>
<defs>
<clipPath id="clip0_1_34">
<rect width="16" height="17" fill="white"/>
</clipPath>
</defs>
</svg>
